<mxfile host="65bd71144e">
    <diagram id="_HI-ZCXc5aMtmLZJUmlw" name="Page-1">
        <mxGraphModel dx="1540" dy="1067" grid="0" gridSize="10" guides="1" tooltips="1" connect="1" arrows="1" fold="1" page="0" pageScale="1" pageWidth="827" pageHeight="1169" background="#666666" math="0" shadow="0">
            <root>
                <mxCell id="0"/>
                <mxCell id="1" parent="0"/>
                <mxCell id="2" value="fromServerStream$" style="whiteSpace=wrap;html=1;fontSize=17;" vertex="1" parent="1">
                    <mxGeometry x="261" y="-59" width="180" height="60" as="geometry"/>
                </mxCell>
                <mxCell id="JtPhZTcKICCbWqP8Aqum-13" value="" style="group" vertex="1" connectable="0" parent="1">
                    <mxGeometry x="575" y="-179" width="294" height="290" as="geometry"/>
                </mxCell>
                <mxCell id="4" value="deleteHero$.next(id)" style="whiteSpace=wrap;html=1;fontSize=17;" vertex="1" parent="JtPhZTcKICCbWqP8Aqum-13">
                    <mxGeometry x="47" width="200" height="60" as="geometry"/>
                </mxCell>
                <mxCell id="JtPhZTcKICCbWqP8Aqum-6" value="concatMap -&amp;gt; service.deleteHero()" style="whiteSpace=wrap;html=1;fontSize=17;fillColor=#eeeeee;strokeColor=#36393d;fontColor=#000000;" vertex="1" parent="JtPhZTcKICCbWqP8Aqum-13">
                    <mxGeometry x="12" y="93" width="270" height="40" as="geometry"/>
                </mxCell>
                <mxCell id="JtPhZTcKICCbWqP8Aqum-5" style="edgeStyle=none;html=1;exitX=0.5;exitY=1;exitDx=0;exitDy=0;fontSize=17;entryX=0.5;entryY=0;entryDx=0;entryDy=0;" edge="1" parent="JtPhZTcKICCbWqP8Aqum-13" source="4" target="JtPhZTcKICCbWqP8Aqum-6">
                    <mxGeometry relative="1" as="geometry">
                        <mxPoint x="147" y="88" as="targetPoint"/>
                    </mxGeometry>
                </mxCell>
                <mxCell id="JtPhZTcKICCbWqP8Aqum-8" style="edgeStyle=none;html=1;exitX=0.5;exitY=1;exitDx=0;exitDy=0;fontSize=17;entryX=0.5;entryY=0;entryDx=0;entryDy=0;" edge="1" parent="JtPhZTcKICCbWqP8Aqum-13" target="JtPhZTcKICCbWqP8Aqum-9" source="JtPhZTcKICCbWqP8Aqum-6">
                    <mxGeometry relative="1" as="geometry">
                        <mxPoint x="147" y="142" as="sourcePoint"/>
                        <mxPoint x="147" y="170" as="targetPoint"/>
                    </mxGeometry>
                </mxCell>
                <mxCell id="JtPhZTcKICCbWqP8Aqum-9" value="map -&amp;gt; makeAddHero(): AddHero" style="whiteSpace=wrap;html=1;fontSize=17;fillColor=#eeeeee;strokeColor=#36393d;fontColor=#000000;" vertex="1" parent="JtPhZTcKICCbWqP8Aqum-13">
                    <mxGeometry y="160" width="294" height="40" as="geometry"/>
                </mxCell>
                <mxCell id="JtPhZTcKICCbWqP8Aqum-11" value="= addedHeroResult$: &lt;font color=&quot;#33ff33&quot;&gt;AddHero&lt;/font&gt;" style="whiteSpace=wrap;html=1;fontSize=17;" vertex="1" parent="JtPhZTcKICCbWqP8Aqum-13">
                    <mxGeometry x="15" y="230" width="264" height="60" as="geometry"/>
                </mxCell>
                <mxCell id="JtPhZTcKICCbWqP8Aqum-12" style="edgeStyle=none;html=1;fontSize=17;entryX=0.5;entryY=0;entryDx=0;entryDy=0;exitX=0.5;exitY=1;exitDx=0;exitDy=0;" edge="1" parent="JtPhZTcKICCbWqP8Aqum-13" source="JtPhZTcKICCbWqP8Aqum-9" target="JtPhZTcKICCbWqP8Aqum-11">
                    <mxGeometry relative="1" as="geometry">
                        <mxPoint x="147" y="211" as="sourcePoint"/>
                        <mxPoint x="146.5" y="233" as="targetPoint"/>
                    </mxGeometry>
                </mxCell>
                <mxCell id="JtPhZTcKICCbWqP8Aqum-22" value="mergeMap" style="whiteSpace=wrap;html=1;fontSize=17;fillColor=#eeeeee;strokeColor=#36393d;fontColor=#000000;" vertex="1" parent="1">
                    <mxGeometry x="216" y="27" width="270" height="40" as="geometry"/>
                </mxCell>
                <mxCell id="JtPhZTcKICCbWqP8Aqum-26" value="merge" style="whiteSpace=wrap;html=1;fontSize=17;fillColor=#eeeeee;strokeColor=#36393d;fontColor=#000000;" vertex="1" parent="1">
                    <mxGeometry x="234" y="180" width="270" height="40" as="geometry"/>
                </mxCell>
                <mxCell id="JtPhZTcKICCbWqP8Aqum-27" style="edgeStyle=none;html=1;fontSize=17;exitX=0.5;exitY=1;exitDx=0;exitDy=0;entryX=0.5;entryY=0;entryDx=0;entryDy=0;" edge="1" parent="1" source="JtPhZTcKICCbWqP8Aqum-22" target="JtPhZTcKICCbWqP8Aqum-26">
                    <mxGeometry relative="1" as="geometry">
                        <mxPoint x="299" y="90" as="sourcePoint"/>
                        <mxPoint x="351" y="95" as="targetPoint"/>
                    </mxGeometry>
                </mxCell>
                <mxCell id="JtPhZTcKICCbWqP8Aqum-28" style="edgeStyle=none;html=1;fontSize=17;entryX=0.5;entryY=0;entryDx=0;entryDy=0;exitX=0.5;exitY=1;exitDx=0;exitDy=0;" edge="1" parent="1" source="2" target="JtPhZTcKICCbWqP8Aqum-22">
                    <mxGeometry relative="1" as="geometry">
                        <mxPoint x="350" y="-166" as="sourcePoint"/>
                        <mxPoint x="402" y="-101" as="targetPoint"/>
                    </mxGeometry>
                </mxCell>
                <mxCell id="JtPhZTcKICCbWqP8Aqum-15" value="addHero$.next(name)" style="whiteSpace=wrap;html=1;fontSize=17;" vertex="1" parent="1">
                    <mxGeometry x="-121" y="-176" width="200" height="60" as="geometry"/>
                </mxCell>
                <mxCell id="JtPhZTcKICCbWqP8Aqum-16" value="concatMap -&amp;gt; service.addHero()" style="whiteSpace=wrap;html=1;fontSize=17;fillColor=#eeeeee;strokeColor=#36393d;fontColor=#000000;" vertex="1" parent="1">
                    <mxGeometry x="-156" y="-83" width="270" height="40" as="geometry"/>
                </mxCell>
                <mxCell id="JtPhZTcKICCbWqP8Aqum-17" style="edgeStyle=none;html=1;exitX=0.5;exitY=1;exitDx=0;exitDy=0;fontSize=17;entryX=0.5;entryY=0;entryDx=0;entryDy=0;" edge="1" parent="1" source="JtPhZTcKICCbWqP8Aqum-15" target="JtPhZTcKICCbWqP8Aqum-16">
                    <mxGeometry relative="1" as="geometry">
                        <mxPoint x="-21" y="-88" as="targetPoint"/>
                    </mxGeometry>
                </mxCell>
                <mxCell id="JtPhZTcKICCbWqP8Aqum-18" style="edgeStyle=none;html=1;exitX=0.5;exitY=1;exitDx=0;exitDy=0;fontSize=17;entryX=0.5;entryY=0;entryDx=0;entryDy=0;" edge="1" parent="1" source="JtPhZTcKICCbWqP8Aqum-16" target="JtPhZTcKICCbWqP8Aqum-19">
                    <mxGeometry relative="1" as="geometry">
                        <mxPoint x="-21" y="-34" as="sourcePoint"/>
                        <mxPoint x="-21" y="-6" as="targetPoint"/>
                    </mxGeometry>
                </mxCell>
                <mxCell id="JtPhZTcKICCbWqP8Aqum-19" value="map -&amp;gt; makeAddHero(): AddHero" style="whiteSpace=wrap;html=1;fontSize=17;fillColor=#eeeeee;strokeColor=#36393d;fontColor=#000000;" vertex="1" parent="1">
                    <mxGeometry x="-168" y="-16" width="294" height="40" as="geometry"/>
                </mxCell>
                <mxCell id="JtPhZTcKICCbWqP8Aqum-30" value="" style="edgeStyle=orthogonalEdgeStyle;shape=flexArrow;rounded=1;sketch=0;html=1;shadow=1;fontSize=17;fontColor=#33FF33;strokeWidth=3;entryX=0;entryY=0.5;entryDx=0;entryDy=0;" edge="1" parent="1" source="JtPhZTcKICCbWqP8Aqum-20" target="JtPhZTcKICCbWqP8Aqum-26">
                    <mxGeometry relative="1" as="geometry"/>
                </mxCell>
                <mxCell id="JtPhZTcKICCbWqP8Aqum-20" value="= addedHeroResult$: &lt;font color=&quot;#33ff33&quot;&gt;AddHero&lt;/font&gt;" style="whiteSpace=wrap;html=1;fontSize=17;" vertex="1" parent="1">
                    <mxGeometry x="-153" y="54" width="264" height="60" as="geometry"/>
                </mxCell>
                <mxCell id="JtPhZTcKICCbWqP8Aqum-21" style="edgeStyle=none;html=1;fontSize=17;entryX=0.5;entryY=0;entryDx=0;entryDy=0;exitX=0.5;exitY=1;exitDx=0;exitDy=0;" edge="1" parent="1" source="JtPhZTcKICCbWqP8Aqum-19" target="JtPhZTcKICCbWqP8Aqum-20">
                    <mxGeometry relative="1" as="geometry">
                        <mxPoint x="-21" y="35" as="sourcePoint"/>
                        <mxPoint x="-21.5" y="57" as="targetPoint"/>
                    </mxGeometry>
                </mxCell>
            </root>
        </mxGraphModel>
    </diagram>
</mxfile>